<?xml version="1.0" encoding="UTF-8" standalone="no"?>
<svg width="239px" height="60px" viewBox="0 0 239 60" version="1.1" xmlns="http://www.w3.org/2000/svg" xmlns:xlink="http://www.w3.org/1999/xlink">
    <!-- Generator: Sketch 40 (33762) - http://www.bohemiancoding.com/sketch -->
    <title>social-icon</title>
    <desc>Created with Sketch.</desc>
    <defs></defs>
    <g id="Page-1" stroke="none" stroke-width="1" fill="none" fill-rule="evenodd">
        <g id="Artboard" transform="translate(-98.000000, -711.000000)" fill="#FFFFFF">
            <g id="social-icon" transform="translate(98.000000, 711.000000)">
                <g id="Layer_2">
                    <path d="M15.7,21.729 L15.7,17.595 C15.7,16.973 15.729,16.495 15.785,16.153 C15.844,15.815 15.973,15.479 16.179,15.148 C16.386,14.818 16.713,14.595 17.168,14.464 C17.625,14.339 18.234,14.275 18.992,14.275 L23.121,14.275 L23.121,6 L16.511,6 C12.687,6 9.939,6.907 8.271,8.719 C6.604,10.538 5.767,13.213 5.767,16.748 L5.767,21.726 L0.816,21.726 L0.816,30 L5.766,30 L5.766,54 L15.7,54 L15.7,30 L22.309,30 L23.184,21.729 L15.7,21.729 L15.7,21.729 Z" id="Shape"></path>
                    <path d="M132,15.143 C130.11,15.954 128.221,16.459 126.336,16.666 C128.465,15.384 129.909,13.577 130.661,11.244 C128.704,12.397 126.629,13.192 124.412,13.621 C122.465,11.549 120.069,10.508 117.224,10.508 C114.499,10.508 112.185,11.467 110.259,13.384 C108.348,15.305 107.385,17.625 107.385,20.342 C107.385,21.076 107.464,21.826 107.627,22.597 C103.61,22.392 99.843,21.384 96.313,19.567 C92.793,17.751 89.802,15.327 87.349,12.304 C86.455,13.826 86.005,15.483 86.005,17.268 C86.005,18.956 86.4,20.515 87.194,21.957 C87.987,23.399 89.046,24.564 90.397,25.458 C88.81,25.398 87.329,24.981 85.946,24.21 L85.946,24.332 C85.946,26.703 86.694,28.789 88.18,30.59 C89.679,32.383 91.555,33.517 93.837,33.985 C92.982,34.202 92.115,34.32 91.246,34.32 C90.68,34.32 90.053,34.27 89.39,34.164 C90.019,36.14 91.176,37.755 92.863,39.02 C94.554,40.295 96.455,40.944 98.588,40.991 C95.013,43.787 90.943,45.191 86.376,45.191 C85.501,45.191 84.709,45.155 84.001,45.062 C88.567,48.015 93.604,49.492 99.101,49.492 C102.601,49.492 105.877,48.939 108.946,47.833 C112.01,46.727 114.63,45.244 116.798,43.385 C118.973,41.529 120.844,39.399 122.421,36.98 C123.994,34.557 125.167,32.035 125.938,29.412 C126.71,26.775 127.099,24.148 127.099,21.51 C127.099,20.937 127.085,20.513 127.065,20.224 C128.997,18.822 130.643,17.128 132,15.143 L132,15.143 Z" id="Shape"></path>
                    <g id="instagram-icon" transform="translate(179.000000, 0.000000)">
                        <g id="Layer_1">
                            <path d="M45.26,30 C45.2489542,38.5314884 38.324839,45.4391899 29.7933484,45.4299878 C21.2618578,45.4207856 14.3526602,38.4981634 14.3600187,29.966671 C14.3673772,21.4351786 21.2885062,14.5244851 29.82,14.53 C33.9225994,14.521982 37.8590385,16.1502403 40.757203,19.0540359 C43.6553675,21.9578315 45.2759816,25.8974239 45.26,30 L45.26,30 Z M29.86,20.06 C24.3864178,20.0329088 19.9231143,24.4402506 19.8811445,29.9137389 C19.8391746,35.3872273 24.2343676,39.8624946 29.7077217,39.9193428 C35.1810757,39.976191 39.6682739,35.5931793 39.74,30.12 C39.7938308,27.4670142 38.7760697,24.9043125 36.9167528,23.0111215 C35.057436,21.1179304 32.5135253,20.0540715 29.86,20.06 L29.86,20.06 Z" id="Shape"></path>
                            <path d="M49.47,13.94 C49.4768163,15.933879 47.9024633,17.5745671 45.91,17.65 C43.8687806,17.6288535 42.2130932,15.9908741 42.17,13.95 C42.2185167,11.9589018 43.8383719,10.3656016 45.83,10.35 C47.8231712,10.3443882 49.4480445,11.9469419 49.47,13.94 L49.47,13.94 Z" id="Shape"></path>
                            <path d="M42.13,60 L17.87,60 C8.00524063,59.9889779 0.0110220878,51.9947594 0,42.13 L0,17.87 C0.0110220878,8.00524063 8.00524063,0.0110220878 17.87,0 L42.13,0 C51.9947594,0.0110220878 59.9889779,8.00524063 60,17.87 L60,42.13 C59.9889779,51.9947594 51.9947594,59.9889779 42.13,60 L42.13,60 Z M17.87,5.7 C11.1486946,5.7 5.7,11.1486946 5.7,17.87 L5.7,42.13 C5.7,48.8513054 11.1486946,54.3 17.87,54.3 L42.13,54.3 C48.8513054,54.3 54.3,48.8513054 54.3,42.13 L54.3,17.87 C54.3,11.1486946 48.8513054,5.7 42.13,5.7 L17.87,5.7 L17.87,5.7 Z" id="Shape"></path>
                        </g>
                    </g>
                </g>
            </g>
        </g>
    </g>
</svg>