<?xml version="1.0" encoding="UTF-8"?>
<svg width="805px" height="270px" viewBox="0 0 805 270" version="1.1" xmlns="http://www.w3.org/2000/svg" xmlns:xlink="http://www.w3.org/1999/xlink">
    <!-- Generator: Sketch 40 (33762) - http://www.bohemiancoding.com/sketch -->
    <title>social-icon</title>
    <desc>Created with Sketch.</desc>
    <defs></defs>
    <g id="Page-1" stroke="none" stroke-width="1" fill="none" fill-rule="evenodd">
        <g id="Artboard" transform="translate(-532.000000, -1954.000000)" fill="#FFFFFF">
            <g id="social-icon" transform="translate(532.000000, 1954.000000)">
                <g id="Page-1">
                    <g>
                        <g id="Artboard">
                            <g id="social-icon">
                                <g id="Layer_2">
                                    <path d="M79.3906475,83.888 L79.3906475,61.84 C79.3906475,58.5226667 79.5453323,55.9733333 79.844034,54.1493333 C80.1587376,52.3466667 80.8468184,50.5546667 81.9456139,48.7893333 C83.0497435,47.0293333 84.7939481,45.84 87.2208995,45.1413333 C89.6585188,44.4746667 92.9068999,44.1333333 96.9500409,44.1333333 L118.973958,44.1333333 L118.973958,0 L83.7164884,0 C63.3194287,0 48.661709,4.83733333 39.7646652,14.5013333 C30.8729554,24.2026667 26.4084316,38.4693333 26.4084316,57.3226667 L26.4084316,83.872 L0,83.872 L0,128 L26.4030976,128 L26.4030976,256 L79.3906475,256 L79.3906475,128 L114.642783,128 L119.309998,83.888 L79.3906475,83.888 L79.3906475,83.888 L79.3906475,83.888 Z" id="Shape"></path>
                                    <path d="M462,62.7170672 C451.91979,67.0418874 441.844913,69.7349011 431.791371,70.8387702 C443.146274,64.002248 450.847768,54.3660581 454.858518,41.9248676 C444.420967,48.0734714 433.35407,52.3129684 421.529824,54.6006969 C411.145607,43.5513413 398.366674,38 383.193025,38 C368.659389,38 356.317798,43.1140599 346.045584,53.3368469 C335.853372,63.5809647 330.717265,75.95283 330.717265,90.4417775 C330.717265,94.3559797 331.138607,98.3555052 332.007958,102.467017 C310.583512,101.373814 290.492427,95.9984515 271.665368,86.3089345 C252.891644,76.6247503 236.939311,63.6982841 223.856372,47.5775302 C219.088273,55.6939005 216.688223,64.5301854 216.688223,74.0490559 C216.688223,83.0506545 218.794933,91.3643347 223.029688,99.0540889 C227.25911,106.743843 232.907227,112.956439 240.112711,117.723874 C231.648534,117.403912 223.749703,115.180175 216.373549,111.068663 L216.373549,111.719253 C216.373549,124.363086 220.362966,135.487099 228.288464,145.091293 C236.283298,154.652825 246.288839,160.700108 258.45976,163.195812 C253.899665,164.353008 249.275568,164.982266 244.640805,164.982266 C241.622075,164.982266 238.278006,164.715631 234.741932,164.150365 C238.096669,174.687781 244.267464,183.300093 253.264985,190.045959 C262.283839,196.845152 272.422717,200.306075 283.798954,200.556712 C264.73189,215.466943 243.024771,222.954054 218.666931,222.954054 C214.000167,222.954054 209.776079,222.762077 206,222.266136 C230.352507,238.013601 257.217067,245.889999 286.535011,245.889999 C305.202067,245.889999 322.674431,242.941016 339.042772,237.043049 C355.384446,231.145082 369.35807,223.236687 380.920978,213.323197 C392.521219,203.425705 402.500094,192.067052 410.910936,179.16725 C419.300444,166.246116 425.556574,152.797045 429.66866,138.809372 C433.786079,124.74704 435.860789,110.738036 435.860789,96.6703718 C435.860789,93.6147343 435.786121,91.3536693 435.679452,89.8125188 C445.983666,82.3360726 454.762516,73.3024778 462,62.7170672 L462,62.7170672 L462,62.7170672 Z" id="Shape"></path>
                                    <g id="instagram-icon" transform="translate(548.690002, 14.000000)">
                                        <g id="Layer_1">
                                            <path d="M193.109333,128 C193.062205,164.401017 163.519313,193.873877 127.118287,193.834615 C90.7172599,193.795352 61.2380169,164.258831 61.2694131,127.857796 C61.3008094,91.456762 90.8309598,61.9711364 127.232,61.9946667 C144.736424,61.9604565 161.531898,68.9076919 173.897399,81.2972198 C186.262901,93.6867477 193.177521,110.495675 193.109333,128 L193.109333,128 L193.109333,128 Z M127.402667,85.5893333 C104.048716,85.4737442 85.0052877,104.278403 84.8262165,127.631953 C84.647145,150.985503 103.399968,170.079977 126.752946,170.322529 C150.105923,170.565082 169.251302,151.864232 169.557333,128.512 C169.787011,117.192594 165.444564,106.2584 157.511479,98.1807851 C149.578394,90.1031697 138.724375,85.5640384 127.402667,85.5893333 L127.402667,85.5893333 L127.402667,85.5893333 Z" id="Shape"></path>
                                            <path d="M211.072,59.4773333 C211.101083,67.9845504 204.383843,74.9848196 195.882667,75.3066667 C187.173464,75.2164416 180.109198,68.2277295 179.925333,59.52 C180.132338,51.0246477 187.04372,44.2265668 195.541333,44.16 C204.04553,44.1360563 210.978323,50.9736188 211.072,59.4773333 L211.072,59.4773333 L211.072,59.4773333 Z" id="Shape"></path>
                                            <path d="M179.754667,256 L76.2453333,256 C34.1556934,255.952972 0.0470275746,221.844307 0,179.754667 L0,76.2453333 C0.0470275746,34.1556934 34.1556934,0.0470275746 76.2453333,0 L179.754667,0 C221.844307,0.0470275746 255.952972,34.1556934 256,76.2453333 L256,179.754667 C255.952972,221.844307 221.844307,255.952972 179.754667,256 L179.754667,256 L179.754667,256 Z M76.2453333,24.32 C47.5677636,24.32 24.32,47.5677636 24.32,76.2453333 L24.32,179.754667 C24.32,208.432236 47.5677636,231.68 76.2453333,231.68 L179.754667,231.68 C208.432236,231.68 231.68,208.432236 231.68,179.754667 L231.68,76.2453333 C231.68,47.5677636 208.432236,24.32 179.754667,24.32 L76.2453333,24.32 L76.2453333,24.32 L76.2453333,24.32 Z" id="Shape"></path>
                                        </g>
                                    </g>
                                </g>
                            </g>
                        </g>
                    </g>
                </g>
            </g>
        </g>
    </g>
</svg>